<svg xmlns="http://www.w3.org/2000/svg" width="820" height="980" viewBox="0 0 820 980" font-family="Helvetica,Arial,sans-serif">
<rect width="820" height="980" fill="#ffffff"/>
<text x="410.0" y="56" text-anchor="middle" font-size="34" font-weight="700" letter-spacing="10" fill="#11182c">GYRE</text>
<text x="410.0" y="80" text-anchor="middle" font-size="12.5" letter-spacing="2" fill="#5a657f">PRINT &amp; PLAY  ·  7 RINGS × 14  ·  SPOKE bridges rim-to-rim  ·  GYRE loops the hole</text>
<circle cx="410.0" cy="520.0" r="83.6" fill="#f4f6fb" stroke="#c4cbdc" stroke-width="1.5"/>
<text x="410.0" y="524.0" text-anchor="middle" font-size="11" fill="#9aa3ba" letter-spacing="2">HOLE</text>
<circle cx="410.0" cy="520.0" r="390.5" fill="none" stroke="#c4cbdc" stroke-width="1.5"/>
<line x1="410.0" y1="422.8" x2="410.0" y2="131.0" stroke="#e2e6ef" stroke-width="1.2" stroke-dasharray="3 4"/>
<line x1="410.0" y1="403.0" x2="460.8" y2="414.6" stroke="#d3d9e6" stroke-width="1"/>
<line x1="410.0" y1="403.0" x2="359.2" y2="414.6" stroke="#d3d9e6" stroke-width="1"/>
<line x1="410.0" y1="403.0" x2="444.8" y2="367.4" stroke="#d3d9e6" stroke-width="1"/>
<line x1="410.0" y1="403.0" x2="375.2" y2="367.4" stroke="#d3d9e6" stroke-width="1"/>
<line x1="460.8" y1="414.6" x2="501.5" y2="447.0" stroke="#d3d9e6" stroke-width="1"/>
<line x1="460.8" y1="414.6" x2="507.6" y2="397.6" stroke="#d3d9e6" stroke-width="1"/>
<line x1="460.8" y1="414.6" x2="444.8" y2="367.4" stroke="#d3d9e6" stroke-width="1"/>
<line x1="501.5" y1="447.0" x2="524.1" y2="494.0" stroke="#d3d9e6" stroke-width="1"/>
<line x1="501.5" y1="447.0" x2="551.0" y2="452.1" stroke="#d3d9e6" stroke-width="1"/>
<line x1="501.5" y1="447.0" x2="507.6" y2="397.6" stroke="#d3d9e6" stroke-width="1"/>
<line x1="524.1" y1="494.0" x2="524.1" y2="546.0" stroke="#d3d9e6" stroke-width="1"/>
<line x1="524.1" y1="494.0" x2="566.5" y2="520.0" stroke="#d3d9e6" stroke-width="1"/>
<line x1="524.1" y1="494.0" x2="551.0" y2="452.1" stroke="#d3d9e6" stroke-width="1"/>
<line x1="524.1" y1="546.0" x2="501.5" y2="593.0" stroke="#d3d9e6" stroke-width="1"/>
<line x1="524.1" y1="546.0" x2="551.0" y2="587.9" stroke="#d3d9e6" stroke-width="1"/>
<line x1="524.1" y1="546.0" x2="566.5" y2="520.0" stroke="#d3d9e6" stroke-width="1"/>
<line x1="501.5" y1="593.0" x2="460.8" y2="625.4" stroke="#d3d9e6" stroke-width="1"/>
<line x1="501.5" y1="593.0" x2="507.6" y2="642.4" stroke="#d3d9e6" stroke-width="1"/>
<line x1="501.5" y1="593.0" x2="551.0" y2="587.9" stroke="#d3d9e6" stroke-width="1"/>
<line x1="460.8" y1="625.4" x2="410.0" y2="637.0" stroke="#d3d9e6" stroke-width="1"/>
<line x1="460.8" y1="625.4" x2="444.8" y2="672.6" stroke="#d3d9e6" stroke-width="1"/>
<line x1="460.8" y1="625.4" x2="507.6" y2="642.4" stroke="#d3d9e6" stroke-width="1"/>
<line x1="410.0" y1="637.0" x2="359.2" y2="625.4" stroke="#d3d9e6" stroke-width="1"/>
<line x1="410.0" y1="637.0" x2="375.2" y2="672.6" stroke="#d3d9e6" stroke-width="1"/>
<line x1="410.0" y1="637.0" x2="444.8" y2="672.6" stroke="#d3d9e6" stroke-width="1"/>
<line x1="359.2" y1="625.4" x2="318.5" y2="593.0" stroke="#d3d9e6" stroke-width="1"/>
<line x1="359.2" y1="625.4" x2="312.4" y2="642.4" stroke="#d3d9e6" stroke-width="1"/>
<line x1="359.2" y1="625.4" x2="375.2" y2="672.6" stroke="#d3d9e6" stroke-width="1"/>
<line x1="318.5" y1="593.0" x2="295.9" y2="546.0" stroke="#d3d9e6" stroke-width="1"/>
<line x1="318.5" y1="593.0" x2="269.0" y2="587.9" stroke="#d3d9e6" stroke-width="1"/>
<line x1="318.5" y1="593.0" x2="312.4" y2="642.4" stroke="#d3d9e6" stroke-width="1"/>
<line x1="295.9" y1="546.0" x2="295.9" y2="494.0" stroke="#d3d9e6" stroke-width="1"/>
<line x1="295.9" y1="546.0" x2="253.5" y2="520.0" stroke="#d3d9e6" stroke-width="1"/>
<line x1="295.9" y1="546.0" x2="269.0" y2="587.9" stroke="#d3d9e6" stroke-width="1"/>
<line x1="295.9" y1="494.0" x2="318.5" y2="447.0" stroke="#d3d9e6" stroke-width="1"/>
<line x1="295.9" y1="494.0" x2="269.0" y2="452.1" stroke="#d3d9e6" stroke-width="1"/>
<line x1="295.9" y1="494.0" x2="253.5" y2="520.0" stroke="#d3d9e6" stroke-width="1"/>
<line x1="318.5" y1="447.0" x2="359.2" y2="414.6" stroke="#d3d9e6" stroke-width="1"/>
<line x1="318.5" y1="447.0" x2="312.4" y2="397.6" stroke="#d3d9e6" stroke-width="1"/>
<line x1="318.5" y1="447.0" x2="269.0" y2="452.1" stroke="#d3d9e6" stroke-width="1"/>
<line x1="359.2" y1="414.6" x2="375.2" y2="367.4" stroke="#d3d9e6" stroke-width="1"/>
<line x1="359.2" y1="414.6" x2="312.4" y2="397.6" stroke="#d3d9e6" stroke-width="1"/>
<line x1="444.8" y1="367.4" x2="507.6" y2="397.6" stroke="#d3d9e6" stroke-width="1"/>
<line x1="444.8" y1="367.4" x2="375.2" y2="367.4" stroke="#d3d9e6" stroke-width="1"/>
<line x1="444.8" y1="367.4" x2="410.0" y2="323.9" stroke="#d3d9e6" stroke-width="1"/>
<line x1="444.8" y1="367.4" x2="324.9" y2="343.3" stroke="#d3d9e6" stroke-width="1"/>
<line x1="507.6" y1="397.6" x2="551.0" y2="452.1" stroke="#d3d9e6" stroke-width="1"/>
<line x1="507.6" y1="397.6" x2="495.1" y2="343.3" stroke="#d3d9e6" stroke-width="1"/>
<line x1="507.6" y1="397.6" x2="410.0" y2="323.9" stroke="#d3d9e6" stroke-width="1"/>
<line x1="551.0" y1="452.1" x2="566.5" y2="520.0" stroke="#d3d9e6" stroke-width="1"/>
<line x1="551.0" y1="452.1" x2="563.3" y2="397.7" stroke="#d3d9e6" stroke-width="1"/>
<line x1="551.0" y1="452.1" x2="495.1" y2="343.3" stroke="#d3d9e6" stroke-width="1"/>
<line x1="566.5" y1="520.0" x2="551.0" y2="587.9" stroke="#d3d9e6" stroke-width="1"/>
<line x1="566.5" y1="520.0" x2="601.2" y2="476.4" stroke="#d3d9e6" stroke-width="1"/>
<line x1="566.5" y1="520.0" x2="563.3" y2="397.7" stroke="#d3d9e6" stroke-width="1"/>
<line x1="551.0" y1="587.9" x2="507.6" y2="642.4" stroke="#d3d9e6" stroke-width="1"/>
<line x1="551.0" y1="587.9" x2="601.2" y2="563.6" stroke="#d3d9e6" stroke-width="1"/>
<line x1="551.0" y1="587.9" x2="601.2" y2="476.4" stroke="#d3d9e6" stroke-width="1"/>
<line x1="507.6" y1="642.4" x2="444.8" y2="672.6" stroke="#d3d9e6" stroke-width="1"/>
<line x1="507.6" y1="642.4" x2="563.3" y2="642.3" stroke="#d3d9e6" stroke-width="1"/>
<line x1="507.6" y1="642.4" x2="601.2" y2="563.6" stroke="#d3d9e6" stroke-width="1"/>
<line x1="444.8" y1="672.6" x2="375.2" y2="672.6" stroke="#d3d9e6" stroke-width="1"/>
<line x1="444.8" y1="672.6" x2="495.1" y2="696.7" stroke="#d3d9e6" stroke-width="1"/>
<line x1="444.8" y1="672.6" x2="563.3" y2="642.3" stroke="#d3d9e6" stroke-width="1"/>
<line x1="375.2" y1="672.6" x2="312.4" y2="642.4" stroke="#d3d9e6" stroke-width="1"/>
<line x1="375.2" y1="672.6" x2="410.0" y2="716.1" stroke="#d3d9e6" stroke-width="1"/>
<line x1="375.2" y1="672.6" x2="495.1" y2="696.7" stroke="#d3d9e6" stroke-width="1"/>
<line x1="312.4" y1="642.4" x2="269.0" y2="587.9" stroke="#d3d9e6" stroke-width="1"/>
<line x1="312.4" y1="642.4" x2="324.9" y2="696.7" stroke="#d3d9e6" stroke-width="1"/>
<line x1="312.4" y1="642.4" x2="410.0" y2="716.1" stroke="#d3d9e6" stroke-width="1"/>
<line x1="269.0" y1="587.9" x2="253.5" y2="520.0" stroke="#d3d9e6" stroke-width="1"/>
<line x1="269.0" y1="587.9" x2="256.7" y2="642.3" stroke="#d3d9e6" stroke-width="1"/>
<line x1="269.0" y1="587.9" x2="324.9" y2="696.7" stroke="#d3d9e6" stroke-width="1"/>
<line x1="253.5" y1="520.0" x2="269.0" y2="452.1" stroke="#d3d9e6" stroke-width="1"/>
<line x1="253.5" y1="520.0" x2="218.8" y2="563.6" stroke="#d3d9e6" stroke-width="1"/>
<line x1="253.5" y1="520.0" x2="256.7" y2="642.3" stroke="#d3d9e6" stroke-width="1"/>
<line x1="269.0" y1="452.1" x2="312.4" y2="397.6" stroke="#d3d9e6" stroke-width="1"/>
<line x1="269.0" y1="452.1" x2="218.8" y2="476.4" stroke="#d3d9e6" stroke-width="1"/>
<line x1="269.0" y1="452.1" x2="218.8" y2="563.6" stroke="#d3d9e6" stroke-width="1"/>
<line x1="312.4" y1="397.6" x2="375.2" y2="367.4" stroke="#d3d9e6" stroke-width="1"/>
<line x1="312.4" y1="397.6" x2="256.7" y2="397.7" stroke="#d3d9e6" stroke-width="1"/>
<line x1="312.4" y1="397.6" x2="218.8" y2="476.4" stroke="#d3d9e6" stroke-width="1"/>
<line x1="375.2" y1="367.4" x2="324.9" y2="343.3" stroke="#d3d9e6" stroke-width="1"/>
<line x1="375.2" y1="367.4" x2="256.7" y2="397.7" stroke="#d3d9e6" stroke-width="1"/>
<line x1="410.0" y1="323.9" x2="495.1" y2="343.3" stroke="#d3d9e6" stroke-width="1"/>
<line x1="410.0" y1="323.9" x2="324.9" y2="343.3" stroke="#d3d9e6" stroke-width="1"/>
<line x1="410.0" y1="323.9" x2="462.4" y2="290.3" stroke="#d3d9e6" stroke-width="1"/>
<line x1="410.0" y1="323.9" x2="357.6" y2="290.3" stroke="#d3d9e6" stroke-width="1"/>
<line x1="495.1" y1="343.3" x2="563.3" y2="397.7" stroke="#d3d9e6" stroke-width="1"/>
<line x1="495.1" y1="343.3" x2="556.9" y2="335.8" stroke="#d3d9e6" stroke-width="1"/>
<line x1="495.1" y1="343.3" x2="462.4" y2="290.3" stroke="#d3d9e6" stroke-width="1"/>
<line x1="563.3" y1="397.7" x2="601.2" y2="476.4" stroke="#d3d9e6" stroke-width="1"/>
<line x1="563.3" y1="397.7" x2="622.3" y2="417.8" stroke="#d3d9e6" stroke-width="1"/>
<line x1="563.3" y1="397.7" x2="556.9" y2="335.8" stroke="#d3d9e6" stroke-width="1"/>
<line x1="601.2" y1="476.4" x2="601.2" y2="563.6" stroke="#d3d9e6" stroke-width="1"/>
<line x1="601.2" y1="476.4" x2="645.6" y2="520.0" stroke="#d3d9e6" stroke-width="1"/>
<line x1="601.2" y1="476.4" x2="622.3" y2="417.8" stroke="#d3d9e6" stroke-width="1"/>
<line x1="601.2" y1="563.6" x2="563.3" y2="642.3" stroke="#d3d9e6" stroke-width="1"/>
<line x1="601.2" y1="563.6" x2="622.3" y2="622.2" stroke="#d3d9e6" stroke-width="1"/>
<line x1="601.2" y1="563.6" x2="645.6" y2="520.0" stroke="#d3d9e6" stroke-width="1"/>
<line x1="563.3" y1="642.3" x2="495.1" y2="696.7" stroke="#d3d9e6" stroke-width="1"/>
<line x1="563.3" y1="642.3" x2="556.9" y2="704.2" stroke="#d3d9e6" stroke-width="1"/>
<line x1="563.3" y1="642.3" x2="622.3" y2="622.2" stroke="#d3d9e6" stroke-width="1"/>
<line x1="495.1" y1="696.7" x2="410.0" y2="716.1" stroke="#d3d9e6" stroke-width="1"/>
<line x1="495.1" y1="696.7" x2="462.4" y2="749.7" stroke="#d3d9e6" stroke-width="1"/>
<line x1="495.1" y1="696.7" x2="556.9" y2="704.2" stroke="#d3d9e6" stroke-width="1"/>
<line x1="410.0" y1="716.1" x2="324.9" y2="696.7" stroke="#d3d9e6" stroke-width="1"/>
<line x1="410.0" y1="716.1" x2="357.6" y2="749.7" stroke="#d3d9e6" stroke-width="1"/>
<line x1="410.0" y1="716.1" x2="462.4" y2="749.7" stroke="#d3d9e6" stroke-width="1"/>
<line x1="324.9" y1="696.7" x2="256.7" y2="642.3" stroke="#d3d9e6" stroke-width="1"/>
<line x1="324.9" y1="696.7" x2="263.1" y2="704.2" stroke="#d3d9e6" stroke-width="1"/>
<line x1="324.9" y1="696.7" x2="357.6" y2="749.7" stroke="#d3d9e6" stroke-width="1"/>
<line x1="256.7" y1="642.3" x2="218.8" y2="563.6" stroke="#d3d9e6" stroke-width="1"/>
<line x1="256.7" y1="642.3" x2="197.7" y2="622.2" stroke="#d3d9e6" stroke-width="1"/>
<line x1="256.7" y1="642.3" x2="263.1" y2="704.2" stroke="#d3d9e6" stroke-width="1"/>
<line x1="218.8" y1="563.6" x2="218.8" y2="476.4" stroke="#d3d9e6" stroke-width="1"/>
<line x1="218.8" y1="563.6" x2="174.4" y2="520.0" stroke="#d3d9e6" stroke-width="1"/>
<line x1="218.8" y1="563.6" x2="197.7" y2="622.2" stroke="#d3d9e6" stroke-width="1"/>
<line x1="218.8" y1="476.4" x2="256.7" y2="397.7" stroke="#d3d9e6" stroke-width="1"/>
<line x1="218.8" y1="476.4" x2="197.7" y2="417.8" stroke="#d3d9e6" stroke-width="1"/>
<line x1="218.8" y1="476.4" x2="174.4" y2="520.0" stroke="#d3d9e6" stroke-width="1"/>
<line x1="256.7" y1="397.7" x2="324.9" y2="343.3" stroke="#d3d9e6" stroke-width="1"/>
<line x1="256.7" y1="397.7" x2="263.1" y2="335.8" stroke="#d3d9e6" stroke-width="1"/>
<line x1="256.7" y1="397.7" x2="197.7" y2="417.8" stroke="#d3d9e6" stroke-width="1"/>
<line x1="324.9" y1="343.3" x2="357.6" y2="290.3" stroke="#d3d9e6" stroke-width="1"/>
<line x1="324.9" y1="343.3" x2="263.1" y2="335.8" stroke="#d3d9e6" stroke-width="1"/>
<line x1="462.4" y1="290.3" x2="556.9" y2="335.8" stroke="#d3d9e6" stroke-width="1"/>
<line x1="462.4" y1="290.3" x2="357.6" y2="290.3" stroke="#d3d9e6" stroke-width="1"/>
<line x1="462.4" y1="290.3" x2="410.0" y2="244.8" stroke="#d3d9e6" stroke-width="1"/>
<line x1="462.4" y1="290.3" x2="290.6" y2="272.1" stroke="#d3d9e6" stroke-width="1"/>
<line x1="556.9" y1="335.8" x2="622.3" y2="417.8" stroke="#d3d9e6" stroke-width="1"/>
<line x1="556.9" y1="335.8" x2="529.4" y2="272.1" stroke="#d3d9e6" stroke-width="1"/>
<line x1="556.9" y1="335.8" x2="410.0" y2="244.8" stroke="#d3d9e6" stroke-width="1"/>
<line x1="622.3" y1="417.8" x2="645.6" y2="520.0" stroke="#d3d9e6" stroke-width="1"/>
<line x1="622.3" y1="417.8" x2="625.1" y2="348.4" stroke="#d3d9e6" stroke-width="1"/>
<line x1="622.3" y1="417.8" x2="529.4" y2="272.1" stroke="#d3d9e6" stroke-width="1"/>
<line x1="645.6" y1="520.0" x2="622.3" y2="622.2" stroke="#d3d9e6" stroke-width="1"/>
<line x1="645.6" y1="520.0" x2="678.3" y2="458.8" stroke="#d3d9e6" stroke-width="1"/>
<line x1="645.6" y1="520.0" x2="625.1" y2="348.4" stroke="#d3d9e6" stroke-width="1"/>
<line x1="622.3" y1="622.2" x2="556.9" y2="704.2" stroke="#d3d9e6" stroke-width="1"/>
<line x1="622.3" y1="622.2" x2="678.3" y2="581.2" stroke="#d3d9e6" stroke-width="1"/>
<line x1="622.3" y1="622.2" x2="678.3" y2="458.8" stroke="#d3d9e6" stroke-width="1"/>
<line x1="556.9" y1="704.2" x2="462.4" y2="749.7" stroke="#d3d9e6" stroke-width="1"/>
<line x1="556.9" y1="704.2" x2="625.1" y2="691.6" stroke="#d3d9e6" stroke-width="1"/>
<line x1="556.9" y1="704.2" x2="678.3" y2="581.2" stroke="#d3d9e6" stroke-width="1"/>
<line x1="462.4" y1="749.7" x2="357.6" y2="749.7" stroke="#d3d9e6" stroke-width="1"/>
<line x1="462.4" y1="749.7" x2="529.4" y2="767.9" stroke="#d3d9e6" stroke-width="1"/>
<line x1="462.4" y1="749.7" x2="625.1" y2="691.6" stroke="#d3d9e6" stroke-width="1"/>
<line x1="357.6" y1="749.7" x2="263.1" y2="704.2" stroke="#d3d9e6" stroke-width="1"/>
<line x1="357.6" y1="749.7" x2="410.0" y2="795.2" stroke="#d3d9e6" stroke-width="1"/>
<line x1="357.6" y1="749.7" x2="529.4" y2="767.9" stroke="#d3d9e6" stroke-width="1"/>
<line x1="263.1" y1="704.2" x2="197.7" y2="622.2" stroke="#d3d9e6" stroke-width="1"/>
<line x1="263.1" y1="704.2" x2="290.6" y2="767.9" stroke="#d3d9e6" stroke-width="1"/>
<line x1="263.1" y1="704.2" x2="410.0" y2="795.2" stroke="#d3d9e6" stroke-width="1"/>
<line x1="197.7" y1="622.2" x2="174.4" y2="520.0" stroke="#d3d9e6" stroke-width="1"/>
<line x1="197.7" y1="622.2" x2="194.9" y2="691.6" stroke="#d3d9e6" stroke-width="1"/>
<line x1="197.7" y1="622.2" x2="290.6" y2="767.9" stroke="#d3d9e6" stroke-width="1"/>
<line x1="174.4" y1="520.0" x2="197.7" y2="417.8" stroke="#d3d9e6" stroke-width="1"/>
<line x1="174.4" y1="520.0" x2="141.7" y2="581.2" stroke="#d3d9e6" stroke-width="1"/>
<line x1="174.4" y1="520.0" x2="194.9" y2="691.6" stroke="#d3d9e6" stroke-width="1"/>
<line x1="197.7" y1="417.8" x2="263.1" y2="335.8" stroke="#d3d9e6" stroke-width="1"/>
<line x1="197.7" y1="417.8" x2="141.7" y2="458.8" stroke="#d3d9e6" stroke-width="1"/>
<line x1="197.7" y1="417.8" x2="141.7" y2="581.2" stroke="#d3d9e6" stroke-width="1"/>
<line x1="263.1" y1="335.8" x2="357.6" y2="290.3" stroke="#d3d9e6" stroke-width="1"/>
<line x1="263.1" y1="335.8" x2="194.9" y2="348.4" stroke="#d3d9e6" stroke-width="1"/>
<line x1="263.1" y1="335.8" x2="141.7" y2="458.8" stroke="#d3d9e6" stroke-width="1"/>
<line x1="357.6" y1="290.3" x2="290.6" y2="272.1" stroke="#d3d9e6" stroke-width="1"/>
<line x1="357.6" y1="290.3" x2="194.9" y2="348.4" stroke="#d3d9e6" stroke-width="1"/>
<line x1="410.0" y1="244.8" x2="529.4" y2="272.1" stroke="#d3d9e6" stroke-width="1"/>
<line x1="410.0" y1="244.8" x2="290.6" y2="272.1" stroke="#d3d9e6" stroke-width="1"/>
<line x1="410.0" y1="244.8" x2="480.0" y2="213.2" stroke="#d3d9e6" stroke-width="1"/>
<line x1="410.0" y1="244.8" x2="340.0" y2="213.2" stroke="#d3d9e6" stroke-width="1"/>
<line x1="529.4" y1="272.1" x2="625.1" y2="348.4" stroke="#d3d9e6" stroke-width="1"/>
<line x1="529.4" y1="272.1" x2="606.2" y2="274.0" stroke="#d3d9e6" stroke-width="1"/>
<line x1="529.4" y1="272.1" x2="480.0" y2="213.2" stroke="#d3d9e6" stroke-width="1"/>
<line x1="625.1" y1="348.4" x2="678.3" y2="458.8" stroke="#d3d9e6" stroke-width="1"/>
<line x1="625.1" y1="348.4" x2="693.5" y2="383.5" stroke="#d3d9e6" stroke-width="1"/>
<line x1="625.1" y1="348.4" x2="606.2" y2="274.0" stroke="#d3d9e6" stroke-width="1"/>
<line x1="678.3" y1="458.8" x2="678.3" y2="581.2" stroke="#d3d9e6" stroke-width="1"/>
<line x1="678.3" y1="458.8" x2="724.7" y2="520.0" stroke="#d3d9e6" stroke-width="1"/>
<line x1="678.3" y1="458.8" x2="693.5" y2="383.5" stroke="#d3d9e6" stroke-width="1"/>
<line x1="678.3" y1="581.2" x2="625.1" y2="691.6" stroke="#d3d9e6" stroke-width="1"/>
<line x1="678.3" y1="581.2" x2="693.5" y2="656.5" stroke="#d3d9e6" stroke-width="1"/>
<line x1="678.3" y1="581.2" x2="724.7" y2="520.0" stroke="#d3d9e6" stroke-width="1"/>
<line x1="625.1" y1="691.6" x2="529.4" y2="767.9" stroke="#d3d9e6" stroke-width="1"/>
<line x1="625.1" y1="691.6" x2="606.2" y2="766.0" stroke="#d3d9e6" stroke-width="1"/>
<line x1="625.1" y1="691.6" x2="693.5" y2="656.5" stroke="#d3d9e6" stroke-width="1"/>
<line x1="529.4" y1="767.9" x2="410.0" y2="795.2" stroke="#d3d9e6" stroke-width="1"/>
<line x1="529.4" y1="767.9" x2="480.0" y2="826.8" stroke="#d3d9e6" stroke-width="1"/>
<line x1="529.4" y1="767.9" x2="606.2" y2="766.0" stroke="#d3d9e6" stroke-width="1"/>
<line x1="410.0" y1="795.2" x2="290.6" y2="767.9" stroke="#d3d9e6" stroke-width="1"/>
<line x1="410.0" y1="795.2" x2="340.0" y2="826.8" stroke="#d3d9e6" stroke-width="1"/>
<line x1="410.0" y1="795.2" x2="480.0" y2="826.8" stroke="#d3d9e6" stroke-width="1"/>
<line x1="290.6" y1="767.9" x2="194.9" y2="691.6" stroke="#d3d9e6" stroke-width="1"/>
<line x1="290.6" y1="767.9" x2="213.8" y2="766.0" stroke="#d3d9e6" stroke-width="1"/>
<line x1="290.6" y1="767.9" x2="340.0" y2="826.8" stroke="#d3d9e6" stroke-width="1"/>
<line x1="194.9" y1="691.6" x2="141.7" y2="581.2" stroke="#d3d9e6" stroke-width="1"/>
<line x1="194.9" y1="691.6" x2="126.5" y2="656.5" stroke="#d3d9e6" stroke-width="1"/>
<line x1="194.9" y1="691.6" x2="213.8" y2="766.0" stroke="#d3d9e6" stroke-width="1"/>
<line x1="141.7" y1="581.2" x2="141.7" y2="458.8" stroke="#d3d9e6" stroke-width="1"/>
<line x1="141.7" y1="581.2" x2="95.3" y2="520.0" stroke="#d3d9e6" stroke-width="1"/>
<line x1="141.7" y1="581.2" x2="126.5" y2="656.5" stroke="#d3d9e6" stroke-width="1"/>
<line x1="141.7" y1="458.8" x2="194.9" y2="348.4" stroke="#d3d9e6" stroke-width="1"/>
<line x1="141.7" y1="458.8" x2="126.5" y2="383.5" stroke="#d3d9e6" stroke-width="1"/>
<line x1="141.7" y1="458.8" x2="95.3" y2="520.0" stroke="#d3d9e6" stroke-width="1"/>
<line x1="194.9" y1="348.4" x2="290.6" y2="272.1" stroke="#d3d9e6" stroke-width="1"/>
<line x1="194.9" y1="348.4" x2="213.8" y2="274.0" stroke="#d3d9e6" stroke-width="1"/>
<line x1="194.9" y1="348.4" x2="126.5" y2="383.5" stroke="#d3d9e6" stroke-width="1"/>
<line x1="290.6" y1="272.1" x2="340.0" y2="213.2" stroke="#d3d9e6" stroke-width="1"/>
<line x1="290.6" y1="272.1" x2="213.8" y2="274.0" stroke="#d3d9e6" stroke-width="1"/>
<line x1="480.0" y1="213.2" x2="606.2" y2="274.0" stroke="#d3d9e6" stroke-width="1"/>
<line x1="480.0" y1="213.2" x2="340.0" y2="213.2" stroke="#d3d9e6" stroke-width="1"/>
<line x1="480.0" y1="213.2" x2="410.0" y2="165.8" stroke="#d3d9e6" stroke-width="1"/>
<line x1="480.0" y1="213.2" x2="256.3" y2="200.8" stroke="#d3d9e6" stroke-width="1"/>
<line x1="606.2" y1="274.0" x2="693.5" y2="383.5" stroke="#d3d9e6" stroke-width="1"/>
<line x1="606.2" y1="274.0" x2="563.7" y2="200.8" stroke="#d3d9e6" stroke-width="1"/>
<line x1="606.2" y1="274.0" x2="410.0" y2="165.8" stroke="#d3d9e6" stroke-width="1"/>
<line x1="693.5" y1="383.5" x2="724.7" y2="520.0" stroke="#d3d9e6" stroke-width="1"/>
<line x1="693.5" y1="383.5" x2="686.9" y2="299.1" stroke="#d3d9e6" stroke-width="1"/>
<line x1="693.5" y1="383.5" x2="563.7" y2="200.8" stroke="#d3d9e6" stroke-width="1"/>
<line x1="724.7" y1="520.0" x2="693.5" y2="656.5" stroke="#d3d9e6" stroke-width="1"/>
<line x1="724.7" y1="520.0" x2="755.4" y2="441.2" stroke="#d3d9e6" stroke-width="1"/>
<line x1="724.7" y1="520.0" x2="686.9" y2="299.1" stroke="#d3d9e6" stroke-width="1"/>
<line x1="693.5" y1="656.5" x2="606.2" y2="766.0" stroke="#d3d9e6" stroke-width="1"/>
<line x1="693.5" y1="656.5" x2="755.4" y2="598.8" stroke="#d3d9e6" stroke-width="1"/>
<line x1="693.5" y1="656.5" x2="755.4" y2="441.2" stroke="#d3d9e6" stroke-width="1"/>
<line x1="606.2" y1="766.0" x2="480.0" y2="826.8" stroke="#d3d9e6" stroke-width="1"/>
<line x1="606.2" y1="766.0" x2="686.9" y2="740.9" stroke="#d3d9e6" stroke-width="1"/>
<line x1="606.2" y1="766.0" x2="755.4" y2="598.8" stroke="#d3d9e6" stroke-width="1"/>
<line x1="480.0" y1="826.8" x2="340.0" y2="826.8" stroke="#d3d9e6" stroke-width="1"/>
<line x1="480.0" y1="826.8" x2="563.7" y2="839.2" stroke="#d3d9e6" stroke-width="1"/>
<line x1="480.0" y1="826.8" x2="686.9" y2="740.9" stroke="#d3d9e6" stroke-width="1"/>
<line x1="340.0" y1="826.8" x2="213.8" y2="766.0" stroke="#d3d9e6" stroke-width="1"/>
<line x1="340.0" y1="826.8" x2="410.0" y2="874.2" stroke="#d3d9e6" stroke-width="1"/>
<line x1="340.0" y1="826.8" x2="563.7" y2="839.2" stroke="#d3d9e6" stroke-width="1"/>
<line x1="213.8" y1="766.0" x2="126.5" y2="656.5" stroke="#d3d9e6" stroke-width="1"/>
<line x1="213.8" y1="766.0" x2="256.3" y2="839.2" stroke="#d3d9e6" stroke-width="1"/>
<line x1="213.8" y1="766.0" x2="410.0" y2="874.2" stroke="#d3d9e6" stroke-width="1"/>
<line x1="126.5" y1="656.5" x2="95.3" y2="520.0" stroke="#d3d9e6" stroke-width="1"/>
<line x1="126.5" y1="656.5" x2="133.1" y2="740.9" stroke="#d3d9e6" stroke-width="1"/>
<line x1="126.5" y1="656.5" x2="256.3" y2="839.2" stroke="#d3d9e6" stroke-width="1"/>
<line x1="95.3" y1="520.0" x2="126.5" y2="383.5" stroke="#d3d9e6" stroke-width="1"/>
<line x1="95.3" y1="520.0" x2="64.6" y2="598.8" stroke="#d3d9e6" stroke-width="1"/>
<line x1="95.3" y1="520.0" x2="133.1" y2="740.9" stroke="#d3d9e6" stroke-width="1"/>
<line x1="126.5" y1="383.5" x2="213.8" y2="274.0" stroke="#d3d9e6" stroke-width="1"/>
<line x1="126.5" y1="383.5" x2="64.6" y2="441.2" stroke="#d3d9e6" stroke-width="1"/>
<line x1="126.5" y1="383.5" x2="64.6" y2="598.8" stroke="#d3d9e6" stroke-width="1"/>
<line x1="213.8" y1="274.0" x2="340.0" y2="213.2" stroke="#d3d9e6" stroke-width="1"/>
<line x1="213.8" y1="274.0" x2="133.1" y2="299.1" stroke="#d3d9e6" stroke-width="1"/>
<line x1="213.8" y1="274.0" x2="64.6" y2="441.2" stroke="#d3d9e6" stroke-width="1"/>
<line x1="340.0" y1="213.2" x2="256.3" y2="200.8" stroke="#d3d9e6" stroke-width="1"/>
<line x1="340.0" y1="213.2" x2="133.1" y2="299.1" stroke="#d3d9e6" stroke-width="1"/>
<line x1="410.0" y1="165.8" x2="563.7" y2="200.8" stroke="#d3d9e6" stroke-width="1"/>
<line x1="410.0" y1="165.8" x2="256.3" y2="200.8" stroke="#d3d9e6" stroke-width="1"/>
<line x1="563.7" y1="200.8" x2="686.9" y2="299.1" stroke="#d3d9e6" stroke-width="1"/>
<line x1="686.9" y1="299.1" x2="755.4" y2="441.2" stroke="#d3d9e6" stroke-width="1"/>
<line x1="755.4" y1="441.2" x2="755.4" y2="598.8" stroke="#d3d9e6" stroke-width="1"/>
<line x1="755.4" y1="598.8" x2="686.9" y2="740.9" stroke="#d3d9e6" stroke-width="1"/>
<line x1="686.9" y1="740.9" x2="563.7" y2="839.2" stroke="#d3d9e6" stroke-width="1"/>
<line x1="563.7" y1="839.2" x2="410.0" y2="874.2" stroke="#d3d9e6" stroke-width="1"/>
<line x1="410.0" y1="874.2" x2="256.3" y2="839.2" stroke="#d3d9e6" stroke-width="1"/>
<line x1="256.3" y1="839.2" x2="133.1" y2="740.9" stroke="#d3d9e6" stroke-width="1"/>
<line x1="133.1" y1="740.9" x2="64.6" y2="598.8" stroke="#d3d9e6" stroke-width="1"/>
<line x1="64.6" y1="598.8" x2="64.6" y2="441.2" stroke="#d3d9e6" stroke-width="1"/>
<line x1="64.6" y1="441.2" x2="133.1" y2="299.1" stroke="#d3d9e6" stroke-width="1"/>
<line x1="133.1" y1="299.1" x2="256.3" y2="200.8" stroke="#d3d9e6" stroke-width="1"/>
<circle cx="410.0" cy="403.0" r="15.0" fill="#ffffff" stroke="#8b93ad" stroke-width="1.3"/>
<circle cx="460.8" cy="414.6" r="15.0" fill="#ffffff" stroke="#8b93ad" stroke-width="1.3"/>
<circle cx="501.5" cy="447.0" r="15.0" fill="#ffffff" stroke="#8b93ad" stroke-width="1.3"/>
<circle cx="524.1" cy="494.0" r="15.0" fill="#ffffff" stroke="#8b93ad" stroke-width="1.3"/>
<circle cx="524.1" cy="546.0" r="15.0" fill="#ffffff" stroke="#8b93ad" stroke-width="1.3"/>
<circle cx="501.5" cy="593.0" r="15.0" fill="#ffffff" stroke="#8b93ad" stroke-width="1.3"/>
<circle cx="460.8" cy="625.4" r="15.0" fill="#ffffff" stroke="#8b93ad" stroke-width="1.3"/>
<circle cx="410.0" cy="637.0" r="15.0" fill="#ffffff" stroke="#8b93ad" stroke-width="1.3"/>
<circle cx="359.2" cy="625.4" r="15.0" fill="#ffffff" stroke="#8b93ad" stroke-width="1.3"/>
<circle cx="318.5" cy="593.0" r="15.0" fill="#ffffff" stroke="#8b93ad" stroke-width="1.3"/>
<circle cx="295.9" cy="546.0" r="15.0" fill="#ffffff" stroke="#8b93ad" stroke-width="1.3"/>
<circle cx="295.9" cy="494.0" r="15.0" fill="#ffffff" stroke="#8b93ad" stroke-width="1.3"/>
<circle cx="318.5" cy="447.0" r="15.0" fill="#ffffff" stroke="#8b93ad" stroke-width="1.3"/>
<circle cx="359.2" cy="414.6" r="15.0" fill="#ffffff" stroke="#8b93ad" stroke-width="1.3"/>
<circle cx="444.8" cy="367.4" r="15.0" fill="#ffffff" stroke="#8b93ad" stroke-width="1.3"/>
<circle cx="507.6" cy="397.6" r="15.0" fill="#ffffff" stroke="#8b93ad" stroke-width="1.3"/>
<circle cx="551.0" cy="452.1" r="15.0" fill="#ffffff" stroke="#8b93ad" stroke-width="1.3"/>
<circle cx="566.5" cy="520.0" r="15.0" fill="#ffffff" stroke="#8b93ad" stroke-width="1.3"/>
<circle cx="551.0" cy="587.9" r="15.0" fill="#ffffff" stroke="#8b93ad" stroke-width="1.3"/>
<circle cx="507.6" cy="642.4" r="15.0" fill="#ffffff" stroke="#8b93ad" stroke-width="1.3"/>
<circle cx="444.8" cy="672.6" r="15.0" fill="#ffffff" stroke="#8b93ad" stroke-width="1.3"/>
<circle cx="375.2" cy="672.6" r="15.0" fill="#ffffff" stroke="#8b93ad" stroke-width="1.3"/>
<circle cx="312.4" cy="642.4" r="15.0" fill="#ffffff" stroke="#8b93ad" stroke-width="1.3"/>
<circle cx="269.0" cy="587.9" r="15.0" fill="#ffffff" stroke="#8b93ad" stroke-width="1.3"/>
<circle cx="253.5" cy="520.0" r="15.0" fill="#ffffff" stroke="#8b93ad" stroke-width="1.3"/>
<circle cx="269.0" cy="452.1" r="15.0" fill="#ffffff" stroke="#8b93ad" stroke-width="1.3"/>
<circle cx="312.4" cy="397.6" r="15.0" fill="#ffffff" stroke="#8b93ad" stroke-width="1.3"/>
<circle cx="375.2" cy="367.4" r="15.0" fill="#ffffff" stroke="#8b93ad" stroke-width="1.3"/>
<circle cx="410.0" cy="323.9" r="15.0" fill="#ffffff" stroke="#8b93ad" stroke-width="1.3"/>
<circle cx="495.1" cy="343.3" r="15.0" fill="#ffffff" stroke="#8b93ad" stroke-width="1.3"/>
<circle cx="563.3" cy="397.7" r="15.0" fill="#ffffff" stroke="#8b93ad" stroke-width="1.3"/>
<circle cx="601.2" cy="476.4" r="15.0" fill="#ffffff" stroke="#8b93ad" stroke-width="1.3"/>
<circle cx="601.2" cy="563.6" r="15.0" fill="#ffffff" stroke="#8b93ad" stroke-width="1.3"/>
<circle cx="563.3" cy="642.3" r="15.0" fill="#ffffff" stroke="#8b93ad" stroke-width="1.3"/>
<circle cx="495.1" cy="696.7" r="15.0" fill="#ffffff" stroke="#8b93ad" stroke-width="1.3"/>
<circle cx="410.0" cy="716.1" r="15.0" fill="#ffffff" stroke="#8b93ad" stroke-width="1.3"/>
<circle cx="324.9" cy="696.7" r="15.0" fill="#ffffff" stroke="#8b93ad" stroke-width="1.3"/>
<circle cx="256.7" cy="642.3" r="15.0" fill="#ffffff" stroke="#8b93ad" stroke-width="1.3"/>
<circle cx="218.8" cy="563.6" r="15.0" fill="#ffffff" stroke="#8b93ad" stroke-width="1.3"/>
<circle cx="218.8" cy="476.4" r="15.0" fill="#ffffff" stroke="#8b93ad" stroke-width="1.3"/>
<circle cx="256.7" cy="397.7" r="15.0" fill="#ffffff" stroke="#8b93ad" stroke-width="1.3"/>
<circle cx="324.9" cy="343.3" r="15.0" fill="#ffffff" stroke="#8b93ad" stroke-width="1.3"/>
<circle cx="462.4" cy="290.3" r="15.0" fill="#ffffff" stroke="#8b93ad" stroke-width="1.3"/>
<circle cx="556.9" cy="335.8" r="15.0" fill="#ffffff" stroke="#8b93ad" stroke-width="1.3"/>
<circle cx="622.3" cy="417.8" r="15.0" fill="#ffffff" stroke="#8b93ad" stroke-width="1.3"/>
<circle cx="645.6" cy="520.0" r="15.0" fill="#ffffff" stroke="#8b93ad" stroke-width="1.3"/>
<circle cx="622.3" cy="622.2" r="15.0" fill="#ffffff" stroke="#8b93ad" stroke-width="1.3"/>
<circle cx="556.9" cy="704.2" r="15.0" fill="#ffffff" stroke="#8b93ad" stroke-width="1.3"/>
<circle cx="462.4" cy="749.7" r="15.0" fill="#ffffff" stroke="#8b93ad" stroke-width="1.3"/>
<circle cx="357.6" cy="749.7" r="15.0" fill="#ffffff" stroke="#8b93ad" stroke-width="1.3"/>
<circle cx="263.1" cy="704.2" r="15.0" fill="#ffffff" stroke="#8b93ad" stroke-width="1.3"/>
<circle cx="197.7" cy="622.2" r="15.0" fill="#ffffff" stroke="#8b93ad" stroke-width="1.3"/>
<circle cx="174.4" cy="520.0" r="15.0" fill="#ffffff" stroke="#8b93ad" stroke-width="1.3"/>
<circle cx="197.7" cy="417.8" r="15.0" fill="#ffffff" stroke="#8b93ad" stroke-width="1.3"/>
<circle cx="263.1" cy="335.8" r="15.0" fill="#ffffff" stroke="#8b93ad" stroke-width="1.3"/>
<circle cx="357.6" cy="290.3" r="15.0" fill="#ffffff" stroke="#8b93ad" stroke-width="1.3"/>
<circle cx="410.0" cy="244.8" r="15.0" fill="#ffffff" stroke="#8b93ad" stroke-width="1.3"/>
<circle cx="529.4" cy="272.1" r="15.0" fill="#ffffff" stroke="#8b93ad" stroke-width="1.3"/>
<circle cx="625.1" cy="348.4" r="15.0" fill="#ffffff" stroke="#8b93ad" stroke-width="1.3"/>
<circle cx="678.3" cy="458.8" r="15.0" fill="#ffffff" stroke="#8b93ad" stroke-width="1.3"/>
<circle cx="678.3" cy="581.2" r="15.0" fill="#ffffff" stroke="#8b93ad" stroke-width="1.3"/>
<circle cx="625.1" cy="691.6" r="15.0" fill="#ffffff" stroke="#8b93ad" stroke-width="1.3"/>
<circle cx="529.4" cy="767.9" r="15.0" fill="#ffffff" stroke="#8b93ad" stroke-width="1.3"/>
<circle cx="410.0" cy="795.2" r="15.0" fill="#ffffff" stroke="#8b93ad" stroke-width="1.3"/>
<circle cx="290.6" cy="767.9" r="15.0" fill="#ffffff" stroke="#8b93ad" stroke-width="1.3"/>
<circle cx="194.9" cy="691.6" r="15.0" fill="#ffffff" stroke="#8b93ad" stroke-width="1.3"/>
<circle cx="141.7" cy="581.2" r="15.0" fill="#ffffff" stroke="#8b93ad" stroke-width="1.3"/>
<circle cx="141.7" cy="458.8" r="15.0" fill="#ffffff" stroke="#8b93ad" stroke-width="1.3"/>
<circle cx="194.9" cy="348.4" r="15.0" fill="#ffffff" stroke="#8b93ad" stroke-width="1.3"/>
<circle cx="290.6" cy="272.1" r="15.0" fill="#ffffff" stroke="#8b93ad" stroke-width="1.3"/>
<circle cx="480.0" cy="213.2" r="15.0" fill="#ffffff" stroke="#8b93ad" stroke-width="1.3"/>
<circle cx="606.2" cy="274.0" r="15.0" fill="#ffffff" stroke="#8b93ad" stroke-width="1.3"/>
<circle cx="693.5" cy="383.5" r="15.0" fill="#ffffff" stroke="#8b93ad" stroke-width="1.3"/>
<circle cx="724.7" cy="520.0" r="15.0" fill="#ffffff" stroke="#8b93ad" stroke-width="1.3"/>
<circle cx="693.5" cy="656.5" r="15.0" fill="#ffffff" stroke="#8b93ad" stroke-width="1.3"/>
<circle cx="606.2" cy="766.0" r="15.0" fill="#ffffff" stroke="#8b93ad" stroke-width="1.3"/>
<circle cx="480.0" cy="826.8" r="15.0" fill="#ffffff" stroke="#8b93ad" stroke-width="1.3"/>
<circle cx="340.0" cy="826.8" r="15.0" fill="#ffffff" stroke="#8b93ad" stroke-width="1.3"/>
<circle cx="213.8" cy="766.0" r="15.0" fill="#ffffff" stroke="#8b93ad" stroke-width="1.3"/>
<circle cx="126.5" cy="656.5" r="15.0" fill="#ffffff" stroke="#8b93ad" stroke-width="1.3"/>
<circle cx="95.3" cy="520.0" r="15.0" fill="#ffffff" stroke="#8b93ad" stroke-width="1.3"/>
<circle cx="126.5" cy="383.5" r="15.0" fill="#ffffff" stroke="#8b93ad" stroke-width="1.3"/>
<circle cx="213.8" cy="274.0" r="15.0" fill="#ffffff" stroke="#8b93ad" stroke-width="1.3"/>
<circle cx="340.0" cy="213.2" r="15.0" fill="#ffffff" stroke="#8b93ad" stroke-width="1.3"/>
<circle cx="410.0" cy="165.8" r="15.0" fill="#ffffff" stroke="#8b93ad" stroke-width="1.3"/>
<circle cx="563.7" cy="200.8" r="15.0" fill="#ffffff" stroke="#8b93ad" stroke-width="1.3"/>
<circle cx="686.9" cy="299.1" r="15.0" fill="#ffffff" stroke="#8b93ad" stroke-width="1.3"/>
<circle cx="755.4" cy="441.2" r="15.0" fill="#ffffff" stroke="#8b93ad" stroke-width="1.3"/>
<circle cx="755.4" cy="598.8" r="15.0" fill="#ffffff" stroke="#8b93ad" stroke-width="1.3"/>
<circle cx="686.9" cy="740.9" r="15.0" fill="#ffffff" stroke="#8b93ad" stroke-width="1.3"/>
<circle cx="563.7" cy="839.2" r="15.0" fill="#ffffff" stroke="#8b93ad" stroke-width="1.3"/>
<circle cx="410.0" cy="874.2" r="15.0" fill="#ffffff" stroke="#8b93ad" stroke-width="1.3"/>
<circle cx="256.3" cy="839.2" r="15.0" fill="#ffffff" stroke="#8b93ad" stroke-width="1.3"/>
<circle cx="133.1" cy="740.9" r="15.0" fill="#ffffff" stroke="#8b93ad" stroke-width="1.3"/>
<circle cx="64.6" cy="598.8" r="15.0" fill="#ffffff" stroke="#8b93ad" stroke-width="1.3"/>
<circle cx="64.6" cy="441.2" r="15.0" fill="#ffffff" stroke="#8b93ad" stroke-width="1.3"/>
<circle cx="133.1" cy="299.1" r="15.0" fill="#ffffff" stroke="#8b93ad" stroke-width="1.3"/>
<circle cx="256.3" cy="200.8" r="15.0" fill="#ffffff" stroke="#8b93ad" stroke-width="1.3"/>
<circle cx="64" cy="940" r="9" fill="#f5a524" stroke="#7a5a1c"/>
<text x="80" y="945" font-size="13" fill="#11182c">SPOKE — bridge inner rim to outer rim</text>
<circle cx="430" cy="940" r="9" fill="#2dd4bf" stroke="#1d5e57"/>
<text x="446" y="945" font-size="13" fill="#11182c">GYRE — encircle the hole</text>
<text x="800" y="962" text-anchor="end" font-size="10.5" fill="#9aa3ba">© 2026 Ideatrino — All Rights Reserved</text>
</svg>