<svg xmlns="http://www.w3.org/2000/svg" width="820" height="980" viewBox="0 0 820 980" font-family="Helvetica,Arial,sans-serif">
<rect width="820" height="980" fill="#ffffff"/>
<text x="410.0" y="56" text-anchor="middle" font-size="34" font-weight="700" letter-spacing="10" fill="#11182c">GYRE</text>
<text x="410.0" y="80" text-anchor="middle" font-size="12.5" letter-spacing="2" fill="#5a657f">PRINT &amp; PLAY  ·  5 RINGS × 10  ·  SPOKE bridges rim-to-rim  ·  GYRE loops the hole</text>
<circle cx="410.0" cy="520.0" r="83.6" fill="#f4f6fb" stroke="#c4cbdc" stroke-width="1.5"/>
<text x="410.0" y="524.0" text-anchor="middle" font-size="11" fill="#9aa3ba" letter-spacing="2">HOLE</text>
<circle cx="410.0" cy="520.0" r="390.5" fill="none" stroke="#c4cbdc" stroke-width="1.5"/>
<line x1="410.0" y1="422.8" x2="410.0" y2="131.0" stroke="#e2e6ef" stroke-width="1.2" stroke-dasharray="3 4"/>
<line x1="410.0" y1="395.1" x2="483.4" y2="418.9" stroke="#d3d9e6" stroke-width="1"/>
<line x1="410.0" y1="395.1" x2="336.6" y2="418.9" stroke="#d3d9e6" stroke-width="1"/>
<line x1="410.0" y1="395.1" x2="465.7" y2="348.6" stroke="#d3d9e6" stroke-width="1"/>
<line x1="410.0" y1="395.1" x2="354.3" y2="348.6" stroke="#d3d9e6" stroke-width="1"/>
<line x1="483.4" y1="418.9" x2="528.8" y2="481.4" stroke="#d3d9e6" stroke-width="1"/>
<line x1="483.4" y1="418.9" x2="555.8" y2="414.0" stroke="#d3d9e6" stroke-width="1"/>
<line x1="483.4" y1="418.9" x2="465.7" y2="348.6" stroke="#d3d9e6" stroke-width="1"/>
<line x1="528.8" y1="481.4" x2="528.8" y2="558.6" stroke="#d3d9e6" stroke-width="1"/>
<line x1="528.8" y1="481.4" x2="590.3" y2="520.0" stroke="#d3d9e6" stroke-width="1"/>
<line x1="528.8" y1="481.4" x2="555.8" y2="414.0" stroke="#d3d9e6" stroke-width="1"/>
<line x1="528.8" y1="558.6" x2="483.4" y2="621.1" stroke="#d3d9e6" stroke-width="1"/>
<line x1="528.8" y1="558.6" x2="555.8" y2="626.0" stroke="#d3d9e6" stroke-width="1"/>
<line x1="528.8" y1="558.6" x2="590.3" y2="520.0" stroke="#d3d9e6" stroke-width="1"/>
<line x1="483.4" y1="621.1" x2="410.0" y2="644.9" stroke="#d3d9e6" stroke-width="1"/>
<line x1="483.4" y1="621.1" x2="465.7" y2="691.4" stroke="#d3d9e6" stroke-width="1"/>
<line x1="483.4" y1="621.1" x2="555.8" y2="626.0" stroke="#d3d9e6" stroke-width="1"/>
<line x1="410.0" y1="644.9" x2="336.6" y2="621.1" stroke="#d3d9e6" stroke-width="1"/>
<line x1="410.0" y1="644.9" x2="354.3" y2="691.4" stroke="#d3d9e6" stroke-width="1"/>
<line x1="410.0" y1="644.9" x2="465.7" y2="691.4" stroke="#d3d9e6" stroke-width="1"/>
<line x1="336.6" y1="621.1" x2="291.2" y2="558.6" stroke="#d3d9e6" stroke-width="1"/>
<line x1="336.6" y1="621.1" x2="264.2" y2="626.0" stroke="#d3d9e6" stroke-width="1"/>
<line x1="336.6" y1="621.1" x2="354.3" y2="691.4" stroke="#d3d9e6" stroke-width="1"/>
<line x1="291.2" y1="558.6" x2="291.2" y2="481.4" stroke="#d3d9e6" stroke-width="1"/>
<line x1="291.2" y1="558.6" x2="229.7" y2="520.0" stroke="#d3d9e6" stroke-width="1"/>
<line x1="291.2" y1="558.6" x2="264.2" y2="626.0" stroke="#d3d9e6" stroke-width="1"/>
<line x1="291.2" y1="481.4" x2="336.6" y2="418.9" stroke="#d3d9e6" stroke-width="1"/>
<line x1="291.2" y1="481.4" x2="264.2" y2="414.0" stroke="#d3d9e6" stroke-width="1"/>
<line x1="291.2" y1="481.4" x2="229.7" y2="520.0" stroke="#d3d9e6" stroke-width="1"/>
<line x1="336.6" y1="418.9" x2="354.3" y2="348.6" stroke="#d3d9e6" stroke-width="1"/>
<line x1="336.6" y1="418.9" x2="264.2" y2="414.0" stroke="#d3d9e6" stroke-width="1"/>
<line x1="465.7" y1="348.6" x2="555.8" y2="414.0" stroke="#d3d9e6" stroke-width="1"/>
<line x1="465.7" y1="348.6" x2="354.3" y2="348.6" stroke="#d3d9e6" stroke-width="1"/>
<line x1="465.7" y1="348.6" x2="410.0" y2="284.4" stroke="#d3d9e6" stroke-width="1"/>
<line x1="465.7" y1="348.6" x2="271.5" y2="329.4" stroke="#d3d9e6" stroke-width="1"/>
<line x1="555.8" y1="414.0" x2="590.3" y2="520.0" stroke="#d3d9e6" stroke-width="1"/>
<line x1="555.8" y1="414.0" x2="548.5" y2="329.4" stroke="#d3d9e6" stroke-width="1"/>
<line x1="555.8" y1="414.0" x2="410.0" y2="284.4" stroke="#d3d9e6" stroke-width="1"/>
<line x1="590.3" y1="520.0" x2="555.8" y2="626.0" stroke="#d3d9e6" stroke-width="1"/>
<line x1="590.3" y1="520.0" x2="634.1" y2="447.2" stroke="#d3d9e6" stroke-width="1"/>
<line x1="590.3" y1="520.0" x2="548.5" y2="329.4" stroke="#d3d9e6" stroke-width="1"/>
<line x1="555.8" y1="626.0" x2="465.7" y2="691.4" stroke="#d3d9e6" stroke-width="1"/>
<line x1="555.8" y1="626.0" x2="634.1" y2="592.8" stroke="#d3d9e6" stroke-width="1"/>
<line x1="555.8" y1="626.0" x2="634.1" y2="447.2" stroke="#d3d9e6" stroke-width="1"/>
<line x1="465.7" y1="691.4" x2="354.3" y2="691.4" stroke="#d3d9e6" stroke-width="1"/>
<line x1="465.7" y1="691.4" x2="548.5" y2="710.6" stroke="#d3d9e6" stroke-width="1"/>
<line x1="465.7" y1="691.4" x2="634.1" y2="592.8" stroke="#d3d9e6" stroke-width="1"/>
<line x1="354.3" y1="691.4" x2="264.2" y2="626.0" stroke="#d3d9e6" stroke-width="1"/>
<line x1="354.3" y1="691.4" x2="410.0" y2="755.6" stroke="#d3d9e6" stroke-width="1"/>
<line x1="354.3" y1="691.4" x2="548.5" y2="710.6" stroke="#d3d9e6" stroke-width="1"/>
<line x1="264.2" y1="626.0" x2="229.7" y2="520.0" stroke="#d3d9e6" stroke-width="1"/>
<line x1="264.2" y1="626.0" x2="271.5" y2="710.6" stroke="#d3d9e6" stroke-width="1"/>
<line x1="264.2" y1="626.0" x2="410.0" y2="755.6" stroke="#d3d9e6" stroke-width="1"/>
<line x1="229.7" y1="520.0" x2="264.2" y2="414.0" stroke="#d3d9e6" stroke-width="1"/>
<line x1="229.7" y1="520.0" x2="185.9" y2="592.8" stroke="#d3d9e6" stroke-width="1"/>
<line x1="229.7" y1="520.0" x2="271.5" y2="710.6" stroke="#d3d9e6" stroke-width="1"/>
<line x1="264.2" y1="414.0" x2="354.3" y2="348.6" stroke="#d3d9e6" stroke-width="1"/>
<line x1="264.2" y1="414.0" x2="185.9" y2="447.2" stroke="#d3d9e6" stroke-width="1"/>
<line x1="264.2" y1="414.0" x2="185.9" y2="592.8" stroke="#d3d9e6" stroke-width="1"/>
<line x1="354.3" y1="348.6" x2="271.5" y2="329.4" stroke="#d3d9e6" stroke-width="1"/>
<line x1="354.3" y1="348.6" x2="185.9" y2="447.2" stroke="#d3d9e6" stroke-width="1"/>
<line x1="410.0" y1="284.4" x2="548.5" y2="329.4" stroke="#d3d9e6" stroke-width="1"/>
<line x1="410.0" y1="284.4" x2="271.5" y2="329.4" stroke="#d3d9e6" stroke-width="1"/>
<line x1="410.0" y1="284.4" x2="499.9" y2="243.3" stroke="#d3d9e6" stroke-width="1"/>
<line x1="410.0" y1="284.4" x2="320.1" y2="243.3" stroke="#d3d9e6" stroke-width="1"/>
<line x1="548.5" y1="329.4" x2="634.1" y2="447.2" stroke="#d3d9e6" stroke-width="1"/>
<line x1="548.5" y1="329.4" x2="645.4" y2="349.0" stroke="#d3d9e6" stroke-width="1"/>
<line x1="548.5" y1="329.4" x2="499.9" y2="243.3" stroke="#d3d9e6" stroke-width="1"/>
<line x1="634.1" y1="447.2" x2="634.1" y2="592.8" stroke="#d3d9e6" stroke-width="1"/>
<line x1="634.1" y1="447.2" x2="701.0" y2="520.0" stroke="#d3d9e6" stroke-width="1"/>
<line x1="634.1" y1="447.2" x2="645.4" y2="349.0" stroke="#d3d9e6" stroke-width="1"/>
<line x1="634.1" y1="592.8" x2="548.5" y2="710.6" stroke="#d3d9e6" stroke-width="1"/>
<line x1="634.1" y1="592.8" x2="645.4" y2="691.0" stroke="#d3d9e6" stroke-width="1"/>
<line x1="634.1" y1="592.8" x2="701.0" y2="520.0" stroke="#d3d9e6" stroke-width="1"/>
<line x1="548.5" y1="710.6" x2="410.0" y2="755.6" stroke="#d3d9e6" stroke-width="1"/>
<line x1="548.5" y1="710.6" x2="499.9" y2="796.7" stroke="#d3d9e6" stroke-width="1"/>
<line x1="548.5" y1="710.6" x2="645.4" y2="691.0" stroke="#d3d9e6" stroke-width="1"/>
<line x1="410.0" y1="755.6" x2="271.5" y2="710.6" stroke="#d3d9e6" stroke-width="1"/>
<line x1="410.0" y1="755.6" x2="320.1" y2="796.7" stroke="#d3d9e6" stroke-width="1"/>
<line x1="410.0" y1="755.6" x2="499.9" y2="796.7" stroke="#d3d9e6" stroke-width="1"/>
<line x1="271.5" y1="710.6" x2="185.9" y2="592.8" stroke="#d3d9e6" stroke-width="1"/>
<line x1="271.5" y1="710.6" x2="174.6" y2="691.0" stroke="#d3d9e6" stroke-width="1"/>
<line x1="271.5" y1="710.6" x2="320.1" y2="796.7" stroke="#d3d9e6" stroke-width="1"/>
<line x1="185.9" y1="592.8" x2="185.9" y2="447.2" stroke="#d3d9e6" stroke-width="1"/>
<line x1="185.9" y1="592.8" x2="119.0" y2="520.0" stroke="#d3d9e6" stroke-width="1"/>
<line x1="185.9" y1="592.8" x2="174.6" y2="691.0" stroke="#d3d9e6" stroke-width="1"/>
<line x1="185.9" y1="447.2" x2="271.5" y2="329.4" stroke="#d3d9e6" stroke-width="1"/>
<line x1="185.9" y1="447.2" x2="174.6" y2="349.0" stroke="#d3d9e6" stroke-width="1"/>
<line x1="185.9" y1="447.2" x2="119.0" y2="520.0" stroke="#d3d9e6" stroke-width="1"/>
<line x1="271.5" y1="329.4" x2="320.1" y2="243.3" stroke="#d3d9e6" stroke-width="1"/>
<line x1="271.5" y1="329.4" x2="174.6" y2="349.0" stroke="#d3d9e6" stroke-width="1"/>
<line x1="499.9" y1="243.3" x2="645.4" y2="349.0" stroke="#d3d9e6" stroke-width="1"/>
<line x1="499.9" y1="243.3" x2="320.1" y2="243.3" stroke="#d3d9e6" stroke-width="1"/>
<line x1="499.9" y1="243.3" x2="410.0" y2="173.7" stroke="#d3d9e6" stroke-width="1"/>
<line x1="499.9" y1="243.3" x2="206.4" y2="239.8" stroke="#d3d9e6" stroke-width="1"/>
<line x1="645.4" y1="349.0" x2="701.0" y2="520.0" stroke="#d3d9e6" stroke-width="1"/>
<line x1="645.4" y1="349.0" x2="613.6" y2="239.8" stroke="#d3d9e6" stroke-width="1"/>
<line x1="645.4" y1="349.0" x2="410.0" y2="173.7" stroke="#d3d9e6" stroke-width="1"/>
<line x1="701.0" y1="520.0" x2="645.4" y2="691.0" stroke="#d3d9e6" stroke-width="1"/>
<line x1="701.0" y1="520.0" x2="739.4" y2="413.0" stroke="#d3d9e6" stroke-width="1"/>
<line x1="701.0" y1="520.0" x2="613.6" y2="239.8" stroke="#d3d9e6" stroke-width="1"/>
<line x1="645.4" y1="691.0" x2="499.9" y2="796.7" stroke="#d3d9e6" stroke-width="1"/>
<line x1="645.4" y1="691.0" x2="739.4" y2="627.0" stroke="#d3d9e6" stroke-width="1"/>
<line x1="645.4" y1="691.0" x2="739.4" y2="413.0" stroke="#d3d9e6" stroke-width="1"/>
<line x1="499.9" y1="796.7" x2="320.1" y2="796.7" stroke="#d3d9e6" stroke-width="1"/>
<line x1="499.9" y1="796.7" x2="613.6" y2="800.2" stroke="#d3d9e6" stroke-width="1"/>
<line x1="499.9" y1="796.7" x2="739.4" y2="627.0" stroke="#d3d9e6" stroke-width="1"/>
<line x1="320.1" y1="796.7" x2="174.6" y2="691.0" stroke="#d3d9e6" stroke-width="1"/>
<line x1="320.1" y1="796.7" x2="410.0" y2="866.3" stroke="#d3d9e6" stroke-width="1"/>
<line x1="320.1" y1="796.7" x2="613.6" y2="800.2" stroke="#d3d9e6" stroke-width="1"/>
<line x1="174.6" y1="691.0" x2="119.0" y2="520.0" stroke="#d3d9e6" stroke-width="1"/>
<line x1="174.6" y1="691.0" x2="206.4" y2="800.2" stroke="#d3d9e6" stroke-width="1"/>
<line x1="174.6" y1="691.0" x2="410.0" y2="866.3" stroke="#d3d9e6" stroke-width="1"/>
<line x1="119.0" y1="520.0" x2="174.6" y2="349.0" stroke="#d3d9e6" stroke-width="1"/>
<line x1="119.0" y1="520.0" x2="80.6" y2="627.0" stroke="#d3d9e6" stroke-width="1"/>
<line x1="119.0" y1="520.0" x2="206.4" y2="800.2" stroke="#d3d9e6" stroke-width="1"/>
<line x1="174.6" y1="349.0" x2="320.1" y2="243.3" stroke="#d3d9e6" stroke-width="1"/>
<line x1="174.6" y1="349.0" x2="80.6" y2="413.0" stroke="#d3d9e6" stroke-width="1"/>
<line x1="174.6" y1="349.0" x2="80.6" y2="627.0" stroke="#d3d9e6" stroke-width="1"/>
<line x1="320.1" y1="243.3" x2="206.4" y2="239.8" stroke="#d3d9e6" stroke-width="1"/>
<line x1="320.1" y1="243.3" x2="80.6" y2="413.0" stroke="#d3d9e6" stroke-width="1"/>
<line x1="410.0" y1="173.7" x2="613.6" y2="239.8" stroke="#d3d9e6" stroke-width="1"/>
<line x1="410.0" y1="173.7" x2="206.4" y2="239.8" stroke="#d3d9e6" stroke-width="1"/>
<line x1="613.6" y1="239.8" x2="739.4" y2="413.0" stroke="#d3d9e6" stroke-width="1"/>
<line x1="739.4" y1="413.0" x2="739.4" y2="627.0" stroke="#d3d9e6" stroke-width="1"/>
<line x1="739.4" y1="627.0" x2="613.6" y2="800.2" stroke="#d3d9e6" stroke-width="1"/>
<line x1="613.6" y1="800.2" x2="410.0" y2="866.3" stroke="#d3d9e6" stroke-width="1"/>
<line x1="410.0" y1="866.3" x2="206.4" y2="800.2" stroke="#d3d9e6" stroke-width="1"/>
<line x1="206.4" y1="800.2" x2="80.6" y2="627.0" stroke="#d3d9e6" stroke-width="1"/>
<line x1="80.6" y1="627.0" x2="80.6" y2="413.0" stroke="#d3d9e6" stroke-width="1"/>
<line x1="80.6" y1="413.0" x2="206.4" y2="239.8" stroke="#d3d9e6" stroke-width="1"/>
<circle cx="410.0" cy="395.1" r="15.0" fill="#ffffff" stroke="#8b93ad" stroke-width="1.3"/>
<circle cx="483.4" cy="418.9" r="15.0" fill="#ffffff" stroke="#8b93ad" stroke-width="1.3"/>
<circle cx="528.8" cy="481.4" r="15.0" fill="#ffffff" stroke="#8b93ad" stroke-width="1.3"/>
<circle cx="528.8" cy="558.6" r="15.0" fill="#ffffff" stroke="#8b93ad" stroke-width="1.3"/>
<circle cx="483.4" cy="621.1" r="15.0" fill="#ffffff" stroke="#8b93ad" stroke-width="1.3"/>
<circle cx="410.0" cy="644.9" r="15.0" fill="#ffffff" stroke="#8b93ad" stroke-width="1.3"/>
<circle cx="336.6" cy="621.1" r="15.0" fill="#ffffff" stroke="#8b93ad" stroke-width="1.3"/>
<circle cx="291.2" cy="558.6" r="15.0" fill="#ffffff" stroke="#8b93ad" stroke-width="1.3"/>
<circle cx="291.2" cy="481.4" r="15.0" fill="#ffffff" stroke="#8b93ad" stroke-width="1.3"/>
<circle cx="336.6" cy="418.9" r="15.0" fill="#ffffff" stroke="#8b93ad" stroke-width="1.3"/>
<circle cx="465.7" cy="348.6" r="15.0" fill="#ffffff" stroke="#8b93ad" stroke-width="1.3"/>
<circle cx="555.8" cy="414.0" r="15.0" fill="#ffffff" stroke="#8b93ad" stroke-width="1.3"/>
<circle cx="590.3" cy="520.0" r="15.0" fill="#ffffff" stroke="#8b93ad" stroke-width="1.3"/>
<circle cx="555.8" cy="626.0" r="15.0" fill="#ffffff" stroke="#8b93ad" stroke-width="1.3"/>
<circle cx="465.7" cy="691.4" r="15.0" fill="#ffffff" stroke="#8b93ad" stroke-width="1.3"/>
<circle cx="354.3" cy="691.4" r="15.0" fill="#ffffff" stroke="#8b93ad" stroke-width="1.3"/>
<circle cx="264.2" cy="626.0" r="15.0" fill="#ffffff" stroke="#8b93ad" stroke-width="1.3"/>
<circle cx="229.7" cy="520.0" r="15.0" fill="#ffffff" stroke="#8b93ad" stroke-width="1.3"/>
<circle cx="264.2" cy="414.0" r="15.0" fill="#ffffff" stroke="#8b93ad" stroke-width="1.3"/>
<circle cx="354.3" cy="348.6" r="15.0" fill="#ffffff" stroke="#8b93ad" stroke-width="1.3"/>
<circle cx="410.0" cy="284.4" r="15.0" fill="#ffffff" stroke="#8b93ad" stroke-width="1.3"/>
<circle cx="548.5" cy="329.4" r="15.0" fill="#ffffff" stroke="#8b93ad" stroke-width="1.3"/>
<circle cx="634.1" cy="447.2" r="15.0" fill="#ffffff" stroke="#8b93ad" stroke-width="1.3"/>
<circle cx="634.1" cy="592.8" r="15.0" fill="#ffffff" stroke="#8b93ad" stroke-width="1.3"/>
<circle cx="548.5" cy="710.6" r="15.0" fill="#ffffff" stroke="#8b93ad" stroke-width="1.3"/>
<circle cx="410.0" cy="755.6" r="15.0" fill="#ffffff" stroke="#8b93ad" stroke-width="1.3"/>
<circle cx="271.5" cy="710.6" r="15.0" fill="#ffffff" stroke="#8b93ad" stroke-width="1.3"/>
<circle cx="185.9" cy="592.8" r="15.0" fill="#ffffff" stroke="#8b93ad" stroke-width="1.3"/>
<circle cx="185.9" cy="447.2" r="15.0" fill="#ffffff" stroke="#8b93ad" stroke-width="1.3"/>
<circle cx="271.5" cy="329.4" r="15.0" fill="#ffffff" stroke="#8b93ad" stroke-width="1.3"/>
<circle cx="499.9" cy="243.3" r="15.0" fill="#ffffff" stroke="#8b93ad" stroke-width="1.3"/>
<circle cx="645.4" cy="349.0" r="15.0" fill="#ffffff" stroke="#8b93ad" stroke-width="1.3"/>
<circle cx="701.0" cy="520.0" r="15.0" fill="#ffffff" stroke="#8b93ad" stroke-width="1.3"/>
<circle cx="645.4" cy="691.0" r="15.0" fill="#ffffff" stroke="#8b93ad" stroke-width="1.3"/>
<circle cx="499.9" cy="796.7" r="15.0" fill="#ffffff" stroke="#8b93ad" stroke-width="1.3"/>
<circle cx="320.1" cy="796.7" r="15.0" fill="#ffffff" stroke="#8b93ad" stroke-width="1.3"/>
<circle cx="174.6" cy="691.0" r="15.0" fill="#ffffff" stroke="#8b93ad" stroke-width="1.3"/>
<circle cx="119.0" cy="520.0" r="15.0" fill="#ffffff" stroke="#8b93ad" stroke-width="1.3"/>
<circle cx="174.6" cy="349.0" r="15.0" fill="#ffffff" stroke="#8b93ad" stroke-width="1.3"/>
<circle cx="320.1" cy="243.3" r="15.0" fill="#ffffff" stroke="#8b93ad" stroke-width="1.3"/>
<circle cx="410.0" cy="173.7" r="15.0" fill="#ffffff" stroke="#8b93ad" stroke-width="1.3"/>
<circle cx="613.6" cy="239.8" r="15.0" fill="#ffffff" stroke="#8b93ad" stroke-width="1.3"/>
<circle cx="739.4" cy="413.0" r="15.0" fill="#ffffff" stroke="#8b93ad" stroke-width="1.3"/>
<circle cx="739.4" cy="627.0" r="15.0" fill="#ffffff" stroke="#8b93ad" stroke-width="1.3"/>
<circle cx="613.6" cy="800.2" r="15.0" fill="#ffffff" stroke="#8b93ad" stroke-width="1.3"/>
<circle cx="410.0" cy="866.3" r="15.0" fill="#ffffff" stroke="#8b93ad" stroke-width="1.3"/>
<circle cx="206.4" cy="800.2" r="15.0" fill="#ffffff" stroke="#8b93ad" stroke-width="1.3"/>
<circle cx="80.6" cy="627.0" r="15.0" fill="#ffffff" stroke="#8b93ad" stroke-width="1.3"/>
<circle cx="80.6" cy="413.0" r="15.0" fill="#ffffff" stroke="#8b93ad" stroke-width="1.3"/>
<circle cx="206.4" cy="239.8" r="15.0" fill="#ffffff" stroke="#8b93ad" stroke-width="1.3"/>
<circle cx="64" cy="940" r="9" fill="#f5a524" stroke="#7a5a1c"/>
<text x="80" y="945" font-size="13" fill="#11182c">SPOKE — bridge inner rim to outer rim</text>
<circle cx="430" cy="940" r="9" fill="#2dd4bf" stroke="#1d5e57"/>
<text x="446" y="945" font-size="13" fill="#11182c">GYRE — encircle the hole</text>
<text x="800" y="962" text-anchor="end" font-size="10.5" fill="#9aa3ba">© 2026 Ideatrino — All Rights Reserved</text>
</svg>